<?xml version="1.0" encoding="UTF-8"?>
<svg id="Layer_2" data-name="Layer 2" xmlns="http://www.w3.org/2000/svg" viewBox="0 0 442.27 592.86">
  <defs>
    <style>
      .cls-1 {
        fill: #fff;
      }
    </style>
  </defs>
  <g id="Layer_1-2" data-name="Layer 1">
    <g>
      <g>
        <path class="cls-1" d="M336.21,0c8,2.04,13.86,3.74,18.65,10.98,2.05,3.1,12.59,24.72,13.19,27.62,3.43,16.47-18.95,33.77-30.43,42.98-20.33,16.32-43.16,29.01-64.58,43.76,22.05,1.59,44.59,3.1,65.87,9.45,22.06,6.58,47.94,21.44,28.39,46.91,8.65,2.46,12.88,9.14,9.62,17.89-2.13,5.71-6.89,5.65-5.3,13.27,4.23,20.31,31.95,35.66,32.65,58.69l-.05,198.26c-1.67,10.35-3.24,21.06-7.02,30.87-2.92,7.59-7.93,13.88-11.42,21.12,12.31,2.07,24.88,4.1,36.96,7.26,5.98,1.56,18.23,3.61,19.34,10.79,3.52,22.66-41.66,21.25-55.4,24.2-.17,8.53-3.27,12.5-10.33,16.84-20.93,12.86-53.83,14.82-77.07,8.46-12.33-3.37-27.35-7.94-19.43-23.81-15.07.99-30.13,3.87-45.19,4.84-67.4,4.35-205.7.89-229.53-78.48-2.39-7.97-2.36-16.15-5.13-23.54v-195.31l5.66-14.26c5.39-10.94,14.45-19.35,21.38-29.14,1.26-1.77,7.73-11.54,7.83-12.63.28-2.76-6.9-3.62-9.33-4.98-1.76-.99-3.38-2.54-4.59-4.15-2.19-2.93-13.54-29.15-14.09-32.54-1.85-11.37,8.26-19.72,16-26.64,38.71-34.61,99.91-63.61,146.84-86.37C219.96,37.96,270.92,13.14,325.52,0h10.69ZM325.51,34.01c-1.94-1.44-36.34,22.85-40.88,25.67-77.9,48.33-159.84,87.09-248.41,112.1-2.32,1.11-3.38,3.54-3.18,6.04,1.1,1.05,13.88-2.93,16.29-3.62,83.54-24.06,162.88-61.59,236.27-107.71,5.43-3.42,40-25.18,40.75-28.3.18-.77-.67-4.04-.84-4.17ZM122.44,190.47c.5,2,1.43,1.56,2.89,1.53,62.69-1.35,129.62,4.58,191.67-6.66,15.43-2.8,64.64-16.37,27.24-31.57-21.43-8.71-60.82-12.28-84.27-12.9-29.81-.8-61.29,19.1-88.97,30.64-16.03,6.68-32.49,12.45-48.57,18.97ZM363.41,187.55c-1.42-1.42-13.04,5.32-15.56,6.3-55.82,21.73-154.32,22.37-214.24,17.98-26.74-1.96-54.09-10.36-80.17-.95.11,1.38,1.43,1.53,2.39,1.97,5.98,2.75,15.32,4.77,21.89,6.29,30.75,7.12,62.44,9.14,93.74,9.18,12.02.02,31.8-1.62,42.73.1,7.76,1.22,9.55,14.9-1,16.37-15.15,2.1-44.92.72-61.17.13-9.4-.34-20.68-1.11-30.07-2-25.28-2.39-50.35-7.49-74.65-14.63-9.21,15.23-28.75,29.83-30.67,48.28-.86,8.26.17,17.66-.11,26.12-1.87,56.5-.89,114.02-.67,170.85,12.56,83.48,149.18,85.09,213.02,82.32,57.32-2.49,157.21-12.48,160.76-87.02l-.24-196.02c-3.25-15.49-16.62-25.45-24.45-38.71-1.46-2.47-6.64-14.57-7.32-15.05-1.18-.83-2.72-.4-3.98-.01l-33.5,12.21c-4.72-.06-4.96-9.33-3.91-12.67,1.85-5.86,18.9-9.62,24.81-12.11,8.33-3.5,22.31-8.48,22.36-18.93Z"/>
        <path class="cls-1" d="M148.47,254.87c38.35-1,77.1-.61,115.31.73,28.4.99,61.65.92,88.48,10.63,9.49,3.44,20.19,8.34,20.91,19.9-2.91,57.02,4.1,116.3.92,172.99-2.08,37.04-17.37,54.85-51.96,66.59-57.89,19.64-175.68,19.87-234.14,1.87-33.48-10.31-55.52-27.5-57.86-64.57-3.61-56.98,2.71-117.58-.05-174.94-.21-5.19,2.15-10.09,5.83-13.6,18.86-17.94,86.42-18.91,112.56-19.6ZM142.72,277.06c-4.25-2.66-8.55,3.93-3.75,6.25,3.95,1.91,5.84-4.94,3.75-6.25ZM93.03,281.08c-3.16-3.15-7.27,1.65-5.15,4.66s8.76-1.04,5.15-4.66ZM249.6,280.96c-1.76-2.82-7.95,1.03-5.27,4.78,2.46,3.45,7.51-1.19,5.27-4.78ZM307.67,279.92c-3.37.52-3.96,8.5,1.71,6.65,3.28-1.07,1.02-7.07-1.71-6.65ZM189.19,286.81c-5.47,1.57-1.77,9.77,3.27,6.22,2.08-1.47,1.58-7.62-3.27-6.22ZM368.27,292.49c-12.65,3.53-24.91,7.81-37.87,10.22-15.27,2.84-30.79,3.1-46.06,5.44-2.25.34-7.26.78-8.37,2.79,21.86,1.34,46.04-.32,67.25-6.1,6.53-1.78,17.66-5.15,22.84-9.22,1.17-.92,2.64-1.12,2.21-3.13ZM243.89,313.87c-69.03.56-139.61.91-205.99-19.43-2.02,1.85,6.25,5.57,7.12,5.99,34.81,16.84,122.84,19.52,162.48,18.34,9.5-.28,25.6-.35,34.3-2.67,1.73-.46,2.51.28,2.09-2.22ZM295.22,333.55c-18.8.08-37.83,3.06-56.63,3.67-42.45,1.37-84.97-.79-127.28-2.03-12.99-.38-18.93,2.37-20.01,16.04-2.47,31.58,1.95,66.3,0,98.21-.12,14.8,14.12,17.18,25.9,18.8,29,3.99,59.28,3.18,88.27,2.99,28.48-.19,67.81,1.27,94.98-6.08,7.97-2.15,13.92-4.75,15.37-13.78l-.09-105.88c-2.51-9.99-11.42-11.99-20.52-11.95ZM50.78,339.36c-3.15,3.25,1.71,7.28,4.66,5.17,3.45-2.46-1.7-8.24-4.66-5.17ZM344.58,339.21c-3.74,1.19-.87,8.27,3.35,5.31,2.39-1.67.85-6.66-3.35-5.31ZM60.92,390.73c-2.91.73-3.56,4.81-.68,6.22,6.74,3.29,5.92-7.53.68-6.22ZM343.15,399.51c-1.64,2.57.79,7.62,4.74,5.23,4.82-2.92-2.25-9.15-4.74-5.23ZM61.89,449.03c-3.26.8-4.18,7.19.74,6.73,5.26-.49,3.61-7.8-.74-6.73ZM343.15,450.04c-2.63,4.17,3.74,8.55,6.22,3.75,2.23-4.32-4.78-6.03-6.22-3.75ZM100.92,495.71c-1.44-2.28-8.45-.57-6.22,3.75,2.48,4.8,8.85.42,6.22-3.75ZM203.76,494.7c-3.26.8-4.18,7.19.74,6.73,5.26-.49,3.61-7.8-.74-6.73ZM310.81,494.74c-4.17-2.63-8.55,3.74-3.75,6.22,4.32,2.23,6.03-4.78,3.75-6.22ZM145.89,497.66c-4.08,2.59,2.33,8.94,5.27,4.78,2.51-3.55-2.53-6.52-5.27-4.78ZM257.16,504.39c-3.72.64-4.85,7.31.78,6.77,5.93-.56,1.97-7.24-.78-6.77Z"/>
        <path class="cls-1" d="M246.97,356.69c5.28-1.21,20.13-1.36,20.63,6.17-2.17,26.66,3.1,58.46.08,84.5-.44,3.83-2.43,6.59-6.39,7.21-5.94.93-17.91,1.48-18.83-6.32l-.08-85.47c.1-3.02,1.58-5.4,4.6-6.09Z"/>
      </g>
      <path class="cls-1" d="M225.33,446.99l-33.35-86.24c-1.63-2.51-4.62-3.79-7.53-4.13-4.88-.58-22.17-.74-25.47,2.27-1.41,1.28-3.73,6.43-4.65,8.46-9.54,21.04-21.53,52.51-28.44,74.56-1.67,5.34-4.12,11.52,4.19,12.82,17.36,2.72,19.16-4.61,25.68-17.93,8.6-.73,17.14-1.91,25.81-1.48,1.89.09,12.52,1.15,13.09,1.49,3.43,2.07,2.32,12.81,10.67,16.54,5.76,2.57,22.73,3.89,20.01-6.34ZM173.44,383.81c.84-1.12,3.27-1.43,4.27-.82,1.43.87,8.5,25.15,10.77,28.54-.64.97-1.25,1.26-2.38,1.45-2.07.35-22.06.83-22.84-.01"/>
    </g>
  </g>
</svg>